<?xml version="1.0" encoding="utf-8"?>
<svg viewBox="0 0 79.976 99.831" xmlns="http://www.w3.org/2000/svg" xmlns:xlink="http://www.w3.org/1999/xlink">
  <defs>
    <style>.a{mask:url(#a);filter:url(#s);}.b,.d{mix-blend-mode:multiply;}.b{fill:url(#c);}.c{mask:url(#d);filter:url(#v);}.d{fill:url(#f);}.e{fill:url(#g);}.f{fill:url(#h);}.g{fill:url(#i);}.h{fill:url(#j);}.i{fill:url(#k);}.j{fill:url(#l);}.k{fill:url(#m);}.l{fill:url(#n);}.m{fill:url(#o);}.n{fill:url(#p);}.o{fill:url(#q);}.p{mask:url(#r);}.q{fill:url(#t);}.r{mask:url(#u);}.s{fill:url(#w);}.t{fill:url(#x);}.u{fill:url(#y);}.v{fill:url(#z);}.w{fill:url(#aa);}.x{fill:url(#ab);}.y{fill:url(#ac);}.z{fill:url(#ad);}.aa{fill:url(#ae);}.ab{filter:url(#e);}.ac{filter:url(#b);}</style>
    <filter id="b" x="91.86" y="-8301.7" width="8.06" height="32766" filterUnits="userSpaceOnUse" color-interpolation-filters="sRGB">
      <feFlood flood-color="#fff" result="bg"/>
      <feBlend in="SourceGraphic" in2="bg"/>
    </filter>
    <mask id="a" x="91.86" y="-8301.7" width="8.06" height="32766" maskUnits="userSpaceOnUse">
      <g class="ac"/>
    </mask>
    <linearGradient id="c" x1="95.89" y1="10.13" x2="95.89" y2="0.86" gradientUnits="userSpaceOnUse">
      <stop offset="0"/>
      <stop offset="0.05" stop-color="#1e1e1e"/>
      <stop offset="0.17" stop-color="#616161"/>
      <stop offset="0.28" stop-color="#999"/>
      <stop offset="0.38" stop-color="#c5c5c5"/>
      <stop offset="0.47" stop-color="#e5e5e5"/>
      <stop offset="0.55" stop-color="#f8f8f8"/>
      <stop offset="0.6" stop-color="#fff"/>
      <stop offset="1" stop-color="#fff"/>
    </linearGradient>
    <filter id="e" x="88.34" y="-8301.7" width="15.1" height="32766" filterUnits="userSpaceOnUse" color-interpolation-filters="sRGB">
      <feFlood flood-color="#fff" result="bg"/>
      <feBlend in="SourceGraphic" in2="bg"/>
    </filter>
    <mask id="d" x="88.34" y="-8301.7" width="15.1" height="32766" maskUnits="userSpaceOnUse">
      <g class="ab"/>
    </mask>
    <linearGradient id="f" x1="95.89" y1="0.86" x2="95.89" y2="94.32" gradientUnits="userSpaceOnUse">
      <stop offset="0.06" stop-color="#fff"/>
      <stop offset="0.22" stop-color="#fff"/>
      <stop offset="0.38" stop-color="#fff"/>
      <stop offset="0.53" stop-color="#fff"/>
      <stop offset="0.74" stop-color="#ccc"/>
      <stop offset="0.75" stop-color="#cfcfcf"/>
      <stop offset="0.8" stop-color="#eaeaea"/>
      <stop offset="0.84" stop-color="#f9f9f9"/>
      <stop offset="0.88" stop-color="#fff"/>
      <stop offset="1" stop-color="#fff"/>
    </linearGradient>
    <linearGradient id="g" x1="95.89" y1="95.26" x2="95.89" gradientUnits="userSpaceOnUse" gradientTransform="matrix(1, 0, 0, 1, -56.081082, 1.351351)">
      <stop offset="0" stop-color="#e4ac52"/>
      <stop offset="0.04" stop-color="#4f361c"/>
      <stop offset="0.09" stop-color="#614726"/>
      <stop offset="0.44" stop-color="#4f361c"/>
      <stop offset="0.67" stop-color="#e4ac52"/>
      <stop offset="0.83" stop-color="#745124"/>
      <stop offset="0.93" stop-color="#4f361c"/>
      <stop offset="1" stop-color="#e4ac52"/>
    </linearGradient>
    <linearGradient id="h" x1="91.99" y1="33.03" x2="91.99" y2="5.54" gradientUnits="userSpaceOnUse" gradientTransform="matrix(1, 0, 0, 1, -56.081082, 1.351351)">
      <stop offset="0.25" stop-color="#a57531"/>
      <stop offset="0.79" stop-color="#fde489"/>
      <stop offset="1" stop-color="#745124"/>
    </linearGradient>
    <linearGradient id="i" x1="90.08" y1="94.38" x2="90.08" y2="53.42" gradientUnits="userSpaceOnUse" gradientTransform="matrix(1, 0, 0, 1, -56.081082, 1.351351)">
      <stop offset="0.1" stop-color="#4f361c"/>
      <stop offset="0.29" stop-color="#fde489"/>
      <stop offset="0.5" stop-color="#a57531"/>
      <stop offset="0.67" stop-color="#e4ac52"/>
      <stop offset="0.84" stop-color="#745124"/>
    </linearGradient>
    <linearGradient id="j" x1="101.71" y1="94.38" x2="101.71" y2="53.42" gradientUnits="userSpaceOnUse" gradientTransform="matrix(1, 0, 0, 1, -56.081082, 1.351351)">
      <stop offset="0.1" stop-color="#4f361c"/>
      <stop offset="0.31" stop-color="#a57531"/>
      <stop offset="0.61" stop-color="#fde489"/>
      <stop offset="0.81" stop-color="#e4ac52"/>
      <stop offset="0.97" stop-color="#745124"/>
    </linearGradient>
    <linearGradient id="k" x1="99.8" y1="33.03" x2="99.8" y2="5.54" gradientUnits="userSpaceOnUse" gradientTransform="matrix(1, 0, 0, 1, -56.081082, 1.351351)">
      <stop offset="0.12" stop-color="#a57531"/>
      <stop offset="0.49" stop-color="#fde489"/>
      <stop offset="0.97" stop-color="#745124"/>
    </linearGradient>
    <linearGradient id="l" x1="81.05" y1="95.26" x2="81.05" y2="3.56" gradientUnits="userSpaceOnUse" gradientTransform="matrix(1, 0, 0, 1, -56.081082, 1.351351)">
      <stop offset="0" stop-color="#745124"/>
      <stop offset="0.25" stop-color="#745124"/>
      <stop offset="0.5" stop-color="#e4ac52"/>
      <stop offset="0.75" stop-color="#745124"/>
      <stop offset="1" stop-color="#e4ac52"/>
    </linearGradient>
    <linearGradient id="m" x1="80.79" y1="94.2" x2="80.79" y2="4.76" gradientUnits="userSpaceOnUse" gradientTransform="matrix(1, 0, 0, 1, -56.081082, 1.351351)">
      <stop offset="0.13" stop-color="#4f361c"/>
      <stop offset="0.67" stop-color="#e4ac52"/>
      <stop offset="0.9" stop-color="#4f361c"/>
    </linearGradient>
    <linearGradient id="n" x1="84.17" y1="95.38" x2="84.17" y2="3.48" gradientUnits="userSpaceOnUse" gradientTransform="matrix(1, 0, 0, 1, -56.081082, 1.351351)">
      <stop offset="0" stop-color="#fde489"/>
      <stop offset="0.11" stop-color="#fae187"/>
      <stop offset="0.2" stop-color="#f0d781"/>
      <stop offset="0.28" stop-color="#dfc676"/>
      <stop offset="0.36" stop-color="#c7ae67"/>
      <stop offset="0.43" stop-color="#a88f54"/>
      <stop offset="0.5" stop-color="#836a3c"/>
      <stop offset="0.57" stop-color="#573e21"/>
      <stop offset="0.58" stop-color="#4f361c"/>
      <stop offset="0.61" stop-color="#5b4223"/>
      <stop offset="0.65" stop-color="#7a6137"/>
      <stop offset="0.71" stop-color="#ac9356"/>
      <stop offset="0.78" stop-color="#f1d881"/>
      <stop offset="0.79" stop-color="#fde489"/>
      <stop offset="0.93" stop-color="#876e3f"/>
      <stop offset="1" stop-color="#4f361c"/>
    </linearGradient>
    <linearGradient id="o" x1="69.58" y1="95.26" x2="69.58" y2="10.45" gradientUnits="userSpaceOnUse" gradientTransform="matrix(1, 0, 0, 1, -56.081082, 1.351351)">
      <stop offset="0" stop-color="#4f361c"/>
      <stop offset="0.25" stop-color="#745124"/>
      <stop offset="0.58" stop-color="#e4ac52"/>
      <stop offset="0.88" stop-color="#745124"/>
      <stop offset="1" stop-color="#e4ac52"/>
    </linearGradient>
    <linearGradient id="p" x1="69.79" y1="94.2" x2="69.79" y2="12.02" gradientUnits="userSpaceOnUse" gradientTransform="matrix(1, 0, 0, 1, -56.081082, 1.351351)">
      <stop offset="0.25" stop-color="#4b331a"/>
      <stop offset="0.5" stop-color="#a57531"/>
      <stop offset="0.75" stop-color="#4f361c"/>
    </linearGradient>
    <linearGradient id="q" x1="73.8" y1="95.35" x2="73.8" y2="11.92" gradientUnits="userSpaceOnUse" gradientTransform="matrix(1, 0, 0, 1, -56.081082, 1.351351)">
      <stop offset="0" stop-color="#4f361c"/>
      <stop offset="0.07" stop-color="#765d34"/>
      <stop offset="0.18" stop-color="#a68d52"/>
      <stop offset="0.27" stop-color="#ccb36a"/>
      <stop offset="0.36" stop-color="#e7ce7b"/>
      <stop offset="0.44" stop-color="#f7de85"/>
      <stop offset="0.5" stop-color="#fde489"/>
      <stop offset="0.6" stop-color="#fae187"/>
      <stop offset="0.67" stop-color="#f0d781"/>
      <stop offset="0.74" stop-color="#dfc676"/>
      <stop offset="0.81" stop-color="#c7ae67"/>
      <stop offset="0.87" stop-color="#a88f54"/>
      <stop offset="0.93" stop-color="#836a3c"/>
      <stop offset="0.99" stop-color="#573e21"/>
      <stop offset="1" stop-color="#4f361c"/>
    </linearGradient>
    <filter id="s" x="91.86" y="0.86" width="8.06" height="9.27" filterUnits="userSpaceOnUse" color-interpolation-filters="sRGB">
      <feFlood flood-color="#fff" result="bg"/>
      <feBlend in="SourceGraphic" in2="bg"/>
    </filter>
    <mask id="r" x="91.86" y="0.86" width="8.06" height="9.27" maskUnits="userSpaceOnUse">
      <g class="a">
        <path class="b" d="M91.9,1.1V5.5c0,1.4,0,3,.1,4.6h7.8c0-1.6.1-3.2.1-4.6V1.1a26.8,26.8,0,0,0-4-.2A26.1,26.1,0,0,0,91.9,1.1Z"/>
      </g>
    </mask>
    <linearGradient id="t" x1="95.89" y1="10.13" x2="95.89" y2="0.86" gradientUnits="userSpaceOnUse">
      <stop offset="0" stop-color="#4f361c"/>
      <stop offset="0.14" stop-color="#5b3a1f"/>
      <stop offset="0.41" stop-color="#6e4123"/>
      <stop offset="0.6" stop-color="#754324"/>
      <stop offset="1" stop-color="#4f361c"/>
    </linearGradient>
    <filter id="v" x="88.34" y="0.86" width="15.1" height="93.46" filterUnits="userSpaceOnUse" color-interpolation-filters="sRGB">
      <feFlood flood-color="#fff" result="bg"/>
      <feBlend in="SourceGraphic" in2="bg"/>
    </filter>
    <mask id="u" x="88.34" y="0.86" width="15.1" height="93.46" maskUnits="userSpaceOnUse">
      <g class="c">
        <path class="d" d="M88.3,94.3c4.4-16.5,3.8-68.8,3.6-88.8V1.1a26.1,26.1,0,0,1,4-.2,26.8,26.8,0,0,1,4,.2V5.5c-.3,20-.9,72.3,3.5,88.8l-2.4-.2v-.2h0l-.5-1.2h0V92h-.1l-1.1-.3a3.7,3.7,0,0,1-2.2-3.7V85.1l-.2-.2h-.4c.1-.1.1-.1.1-.2h0v-.2a3.3,3.3,0,0,0,2.7-2.5l.2-.3h.2a.1.1,0,0,0,.1.1h.5c0,.1,0,.2.1.2h.3c.1,0,.1-.5.1-1s0-.9-.1-.9h-.3c-.1,0-.1,0-.1.1h-.5v.2h-.2c-.1-.2-.1-.4-.2-.6h-.1a3.4,3.4,0,0,0-2.7-2.3h-.1v-.6c0-.1,0-.2-.2-.6s-.1-.1-.1-.2a1.1,1.1,0,0,1,.1-.5v-.2h0a1.9,1.9,0,0,0,.8-.2h0a.8.8,0,0,1-.7.1h-.3c.1,0,.1-.1.1-.2s0-.2-.2-.2a.2.2,0,0,0-.2.2c0,.1.1.1.1.2h-.1l-.4.2-.3.5c-.1.2-.1.5,0,.5s.1,0,.1-.1v-.2c.1-.2.2-.4.3-.4h.1a1.3,1.3,0,0,1-.1.7h0v.6h0c-.2.1-.4.3-.4.4l-.3.3c-.1.1-.2.2-.1.2a4.1,4.1,0,0,0-2,2.1c0,.1,0,.1-.1.1s-.1.4-.1.6h-.2a.3.3,0,0,1-.1-.2h-.5c0-.1,0-.1-.1-.1h-.3c-.1,0-.2.4-.2.9s.1,1,.2,1h.3c.1,0,.1-.1.1-.2h.8l.2.3a3.2,3.2,0,0,0,2.7,2.5v.2h0c0,.1,0,.1.1.2h-.4l-.2.2v2.8a3.7,3.7,0,0,1-2.2,3.7l-1.1.3h-.1v.5h0l-.5,1.2h0v.2Zm7.6-17.7h-.1l-.3.3c-.1.2-.6.5-.7.6h.5l.4-.2h0a.2.2,0,0,1,.2-.2h0l.2.2h0a.1.1,0,0,0,.1.1v-.5C96.2,76.8,96,76.8,95.9,76.6Z"/>
      </g>
    </mask>
    <linearGradient id="w" x1="95.89" y1="0.86" x2="95.89" y2="94.32" gradientUnits="userSpaceOnUse">
      <stop offset="0.06" stop-color="#4f361c"/>
      <stop offset="0.22" stop-color="#a57531"/>
      <stop offset="0.25" stop-color="#ad7d36"/>
      <stop offset="0.29" stop-color="#c39545"/>
      <stop offset="0.35" stop-color="#e7ba5c"/>
      <stop offset="0.38" stop-color="#fbcf69"/>
      <stop offset="0.53" stop-color="#fbcf69"/>
      <stop offset="0.74" stop-color="#e4ac52"/>
      <stop offset="0.75" stop-color="#d29e4b"/>
      <stop offset="0.78" stop-color="#a3793b"/>
      <stop offset="0.81" stop-color="#7f5c2d"/>
      <stop offset="0.83" stop-color="#644724"/>
      <stop offset="0.86" stop-color="#553a1e"/>
      <stop offset="0.88" stop-color="#4f361c"/>
      <stop offset="1" stop-color="#734122"/>
    </linearGradient>
    <linearGradient id="x" x1="-38.19" y1="95.26" x2="-38.19" y2="3.56" gradientTransform="matrix(-1, 0, 0, 1, 16.458919, 1.351351)" xlink:href="#l"/>
    <linearGradient id="y" x1="-38.45" y1="94.2" x2="-38.45" y2="4.76" gradientTransform="matrix(-1, 0, 0, 1, 16.458919, 1.351351)" xlink:href="#m"/>
    <linearGradient id="z" x1="-35.08" y1="95.38" x2="-35.08" y2="3.48" gradientTransform="matrix(-1, 0, 0, 1, 16.458919, 1.351351)" xlink:href="#n"/>
    <linearGradient id="aa" x1="-49.66" y1="95.26" x2="-49.66" y2="10.45" gradientTransform="matrix(-1, 0, 0, 1, 16.458919, 1.351351)" xlink:href="#o"/>
    <linearGradient id="ab" x1="-49.45" y1="94.2" x2="-49.45" y2="12.02" gradientTransform="matrix(-1, 0, 0, 1, 16.458919, 1.351351)" xlink:href="#p"/>
    <linearGradient id="ac" x1="-45.44" y1="95.35" x2="-45.44" y2="11.92" gradientTransform="matrix(-1, 0, 0, 1, 16.458919, 1.351351)" xlink:href="#q"/>
    <linearGradient id="ad" x1="89.96" y1="86.37" x2="95.39" y2="86.37" gradientUnits="userSpaceOnUse" gradientTransform="matrix(1, 0, 0, 1, -56.081082, 1.351351)">
      <stop offset="0" stop-color="#4f361c"/>
      <stop offset="0.29" stop-color="#fde489"/>
      <stop offset="0.5" stop-color="#a57531"/>
      <stop offset="0.67" stop-color="#e4ac52"/>
      <stop offset="0.84" stop-color="#745124"/>
    </linearGradient>
    <linearGradient id="ae" x1="99.07" y1="95.32" x2="99.07" y2="76.92" gradientUnits="userSpaceOnUse" gradientTransform="matrix(1, 0, 0, 1, -56.081082, 1.351351)">
      <stop offset="0" stop-color="#e4ac52"/>
      <stop offset="0.16" stop-color="#745124"/>
      <stop offset="0.5" stop-color="#a57531"/>
      <stop offset="0.71" stop-color="#fde489"/>
      <stop offset="0.9" stop-color="#4f361c"/>
    </linearGradient>
  </defs>
  <title>Recurso 1</title>
  <path class="e" d="M 40.119 78.252 L 40.119 78.752 C 40.064 78.752 40.019 78.707 40.019 78.652 L 39.819 78.452 C 39.708 78.452 39.619 78.541 39.619 78.652 L 39.219 78.852 L 38.719 78.852 C 38.819 78.752 39.319 78.452 39.419 78.252 L 39.719 77.952 L 39.819 77.952 C 39.919 78.152 40.119 78.152 40.119 78.252 Z M 33.919 96.652 L 34.419 96.152 L 34.519 96.152 C 34.629 96.152 34.719 96.062 34.719 95.952 L 34.719 95.352 L 35.219 94.152 L 35.219 93.352 L 35.319 93.352 L 36.419 93.052 C 37.868 92.416 38.752 90.929 38.619 89.352 L 38.619 86.452 L 38.819 86.252 L 39.219 86.252 C 39.119 86.152 39.119 86.152 39.119 86.052 L 39.119 85.852 C 37.782 85.671 36.702 84.671 36.419 83.352 L 36.219 83.052 L 35.419 83.052 C 35.419 83.152 35.419 83.252 35.319 83.252 L 35.019 83.252 C 34.919 83.252 34.819 82.752 34.819 82.252 C 34.819 81.752 34.919 81.352 35.019 81.352 L 35.319 81.352 C 35.419 81.352 35.419 81.352 35.419 81.452 L 35.919 81.452 C 35.925 81.529 35.961 81.6 36.019 81.652 L 36.219 81.652 C 36.219 81.452 36.319 81.252 36.319 81.052 C 36.319 80.852 36.419 81.052 36.419 80.952 C 36.807 80.032 37.519 79.285 38.419 78.852 C 38.319 78.852 38.419 78.752 38.519 78.652 L 38.819 78.352 C 38.819 78.252 39.019 78.052 39.219 77.952 L 39.219 77.352 C 39.316 77.132 39.351 76.89 39.319 76.652 L 39.219 76.652 C 39.119 76.652 39.019 76.852 38.919 77.052 L 38.919 77.252 C 38.919 77.352 38.919 77.352 38.819 77.352 C 38.719 77.352 38.719 77.052 38.819 76.852 L 39.119 76.352 L 39.519 76.152 L 39.619 76.152 C 39.619 76.052 39.519 76.052 39.519 75.952 C 39.519 75.841 39.608 75.752 39.719 75.752 C 39.919 75.752 39.919 75.852 39.919 75.952 C 39.919 76.052 39.919 76.152 39.819 76.152 L 40.119 76.152 C 40.355 76.229 40.614 76.192 40.819 76.052 C 40.57 76.176 40.297 76.244 40.019 76.252 L 40.019 76.452 C 39.947 76.608 39.912 76.78 39.919 76.952 C 39.919 77.052 39.919 77.052 40.019 77.152 C 40.119 77.252 40.219 77.652 40.219 77.752 L 40.219 78.352 L 40.319 78.352 C 41.579 78.551 42.622 79.439 43.019 80.652 L 43.119 80.652 C 43.219 80.852 43.219 81.052 43.319 81.252 L 43.519 81.252 L 43.519 81.052 L 44.019 81.052 C 44.019 80.952 44.019 80.952 44.119 80.952 L 44.419 80.952 C 44.519 80.952 44.519 81.352 44.519 81.852 C 44.519 82.352 44.519 82.852 44.419 82.852 L 44.119 82.852 C 44.019 82.852 44.019 82.752 44.019 82.652 L 43.519 82.652 C 43.464 82.652 43.419 82.607 43.419 82.552 L 43.219 82.552 L 43.019 82.852 C 42.71 84.156 41.643 85.144 40.319 85.352 L 40.319 85.552 C 40.319 85.652 40.319 85.652 40.219 85.752 L 40.619 85.752 L 40.819 85.952 L 40.819 88.752 C 40.685 90.329 41.57 91.816 43.019 92.452 L 44.119 92.752 L 44.219 92.752 L 44.219 93.252 L 44.719 94.452 L 44.719 95.052 C 44.719 95.162 44.808 95.252 44.919 95.252 L 45.019 95.252 L 45.519 95.752 L 48.319 95.752 C 43.019 79.152 44.419 12.852 44.519 0.852 C 41.291 0.636 38.05 0.94 34.919 1.752 C 35.019 13.752 36.319 80.052 31.119 96.652 L 33.919 96.652 Z"/>
  <path class="f" d="M 36.019 34.352 C 35.942 33.957 35.908 33.554 35.919 33.152 C 35.919 32.452 35.819 31.352 35.819 30.052 C 35.819 28.752 35.719 27.252 35.719 25.652 L 35.719 11.152 C 35.719 9.852 35.819 8.852 35.819 8.052 C 35.819 8.852 35.819 9.852 35.919 11.152 L 35.919 15.552 C 36.019 17.252 36.019 18.952 36.019 20.652 L 36.019 30.052 C 36.019 31.352 35.919 32.452 35.919 33.152 L 36.019 34.352 Z"/>
  <path class="g" d="M 32.219 95.652 L 32.619 93.952 C 32.719 93.352 32.819 92.752 33.019 91.952 C 33.219 91.152 33.219 90.352 33.319 89.352 C 33.514 88.327 33.647 87.292 33.719 86.252 C 33.819 85.152 33.919 84.052 34.119 82.852 L 34.419 79.152 C 34.519 77.852 34.619 76.552 34.619 75.252 C 34.619 73.952 35.019 70.152 35.119 67.752 C 35.219 65.352 35.319 63.152 35.419 61.152 C 35.619 57.352 35.719 54.752 35.719 54.752 L 35.719 56.552 C 35.719 57.652 35.719 59.252 35.619 61.252 C 35.519 63.252 35.619 65.352 35.519 67.752 C 35.419 70.152 35.219 72.752 35.119 75.352 L 34.819 79.152 C 34.719 80.452 34.619 81.652 34.419 82.852 C 34.219 84.052 34.219 85.252 34.019 86.352 C 33.819 87.452 33.719 88.452 33.619 89.352 C 33.519 90.252 33.319 91.252 33.119 91.952 C 32.919 92.652 32.819 93.452 32.719 93.952 C 32.619 94.452 32.419 94.952 32.419 95.252 L 32.219 95.652 Z"/>
  <path class="h" d="M 43.919 54.752 C 43.919 54.752 44.019 57.352 44.219 61.152 C 44.352 63.152 44.452 65.352 44.519 67.752 C 44.619 70.152 44.819 72.752 45.019 75.252 C 45.219 77.752 45.119 77.852 45.219 79.152 L 45.519 82.852 C 45.619 84.052 45.819 85.152 45.919 86.252 C 46.019 87.352 46.119 88.452 46.219 89.352 C 46.319 90.252 46.519 91.152 46.619 91.952 C 46.719 92.752 46.919 93.352 47.019 93.952 L 47.319 95.652 L 47.319 95.252 C 47.185 94.827 47.085 94.392 47.019 93.952 C 46.919 93.452 46.719 92.752 46.619 91.952 C 46.376 91.102 46.208 90.231 46.119 89.352 C 45.93 88.36 45.796 87.358 45.719 86.352 C 45.519 85.252 45.419 84.052 45.319 82.852 C 45.219 81.652 45.019 80.452 44.919 79.152 L 44.619 75.352 C 44.519 72.752 44.319 70.152 44.219 67.752 C 44.119 65.352 44.119 63.152 44.019 61.252 L 44.019 54.752 L 43.919 54.752 Z"/>
  <path class="i" d="M 43.819 6.852 L 43.819 8.052 C 43.819 8.852 43.919 9.852 43.919 11.152 L 43.919 25.652 C 43.819 27.252 43.819 28.752 43.819 30.052 C 43.819 31.352 43.719 32.452 43.719 33.152 C 43.663 33.55 43.63 33.95 43.619 34.352 L 43.619 33.152 C 43.619 32.452 43.519 31.352 43.519 30.052 L 43.519 15.552 C 43.619 13.952 43.619 12.452 43.619 11.152 C 43.619 9.852 43.719 8.852 43.719 8.052 C 43.778 7.654 43.811 7.254 43.819 6.852 Z"/>
  <path class="j" d="M 17.519 96.652 L 26.219 96.652 C 30.481 82.377 32.604 67.549 32.519 52.652 C 32.519 35.152 29.819 18.852 25.019 5.052 L 24.919 5.052 C 22.971 6.028 21.128 7.2 19.419 8.552 C 24.871 21.808 27.625 36.019 27.519 50.352 C 27.519 67.652 23.719 83.652 17.419 96.552 L 17.519 96.652 Z"/>
  <path class="k" d="M 24.419 6.152 C 22.621 6.645 20.928 7.458 19.419 8.552 L 19.719 9.352 C 25.005 22.368 27.656 36.304 27.519 50.352 C 27.519 67.252 23.919 82.852 17.919 95.552 L 25.419 95.552 C 29.558 81.7 31.614 67.309 31.519 52.852 C 31.519 35.852 29.119 19.552 24.419 6.152 Z"/>
  <path class="l" d="M 26.119 96.552 L 25.319 95.552 C 25.631 94.666 25.898 93.765 26.119 92.852 C 26.399 91.931 26.633 90.996 26.819 90.052 C 27.319 88.252 27.719 86.452 28.119 84.552 L 28.419 83.152 L 28.719 81.752 C 28.819 80.852 29.019 79.952 29.219 78.952 C 29.419 77.952 29.819 75.252 30.019 73.352 C 30.519 69.652 30.819 65.852 31.019 62.052 C 31.219 58.252 31.319 54.552 31.319 50.752 C 31.335 49.817 31.302 48.883 31.219 47.952 L 31.219 45.052 C 31.219 43.252 31.019 41.352 30.919 39.452 C 30.819 37.552 30.619 35.652 30.419 33.752 L 29.919 30.952 L 29.519 28.152 L 29.119 25.352 L 28.619 22.552 L 28.119 19.852 L 27.519 17.052 L 26.819 14.252 C 26.619 13.352 26.319 12.452 26.119 11.552 C 25.806 10.666 25.539 9.765 25.319 8.852 L 24.419 6.152 L 25.019 4.952 L 24.419 6.152 L 25.319 8.752 L 26.219 11.552 C 26.439 12.465 26.706 13.366 27.019 14.252 C 27.219 15.152 27.519 16.052 27.719 16.952 L 28.319 19.752 L 28.919 22.552 L 29.419 25.352 L 29.919 28.152 L 30.319 30.952 L 30.619 33.752 L 31.219 39.452 C 31.319 41.252 31.519 43.152 31.519 45.052 L 31.519 50.752 C 31.619 54.554 31.519 58.36 31.219 62.152 C 31.046 65.935 30.678 69.706 30.119 73.452 C 29.919 75.252 29.619 77.152 29.219 79.052 C 28.819 80.952 28.919 80.852 28.719 81.852 L 28.419 83.252 L 28.119 84.552 L 27.719 87.352 C 27.519 88.252 27.219 89.152 27.019 90.152 C 26.819 91.152 26.519 91.952 26.219 92.852 C 25.906 93.738 25.639 94.639 25.419 95.552 L 26.119 96.552 Z"/>
  <path class="m" d="M 2.119 96.652 L 11.819 96.652 C 20.019 84.652 25.019 68.552 25.019 50.852 C 25.139 37.312 22.019 23.94 15.919 11.852 L 15.819 11.852 C 14.712 12.959 13.708 14.164 12.819 15.452 C 18.711 25.701 21.782 37.329 21.719 49.152 C 21.719 68.252 15.019 88.152 2.019 96.352 C 2.019 96.552 2.019 96.652 2.119 96.652 Z"/>
  <path class="n" d="M 15.519 13.352 C 14.533 13.973 13.626 14.712 12.819 15.552 L 13.119 16.052 C 18.796 26.193 21.758 37.629 21.719 49.252 C 21.719 67.652 15.519 86.752 3.419 95.552 L 11.319 95.552 C 19.119 83.952 23.919 68.452 23.919 51.352 C 23.919 37.352 21.019 23.952 15.519 13.352 Z"/>
  <path class="o" d="M 15.519 13.352 C 16.319 14.952 17.119 16.552 17.819 18.252 L 18.319 19.452 C 18.519 19.852 18.619 20.252 18.819 20.752 C 18.942 21.168 19.11 21.571 19.319 21.952 L 19.719 23.252 C 20.319 24.952 20.819 26.652 21.319 28.352 L 21.919 30.952 L 22.519 33.652 C 22.619 34.552 22.819 35.352 22.919 36.252 C 23.101 37.144 23.234 38.045 23.319 38.952 C 23.617 40.706 23.818 42.475 23.919 44.252 C 24.019 46.052 24.119 47.852 24.119 49.652 C 24.219 51.45 24.219 53.253 24.119 55.052 C 23.955 58.636 23.588 62.209 23.019 65.752 C 22.423 69.304 21.588 72.812 20.519 76.252 C 19.516 79.693 18.211 83.04 16.619 86.252 C 15.108 89.491 13.336 92.601 11.319 95.552 L 11.819 96.652 L 11.319 95.552 C 13.272 92.562 14.977 89.419 16.419 86.152 C 17.935 82.919 19.206 79.576 20.219 76.152 C 21.219 72.701 22.02 69.195 22.619 65.652 C 22.919 63.952 23.119 62.152 23.319 60.352 C 23.519 58.552 23.619 56.852 23.719 55.052 C 23.819 53.252 23.819 51.452 23.719 49.652 C 23.619 47.852 23.619 46.052 23.519 44.352 C 23.419 42.652 23.219 40.752 23.019 38.952 C 22.819 37.152 22.719 37.252 22.619 36.352 C 22.501 35.443 22.334 34.542 22.119 33.652 L 21.619 31.052 L 21.019 28.452 C 20.612 26.693 20.111 24.957 19.519 23.252 L 19.119 22.052 C 19.014 21.597 18.845 21.16 18.619 20.752 C 18.519 20.352 18.319 19.952 18.219 19.452 L 17.719 18.252 C 17.019 16.552 16.319 14.952 15.519 13.352 Z"/>
  <g class="p" transform="matrix(1, 0, 0, 1, -56.081081, 1.351351)">
    <path class="q" d="M91.9,1.1V5.5c0,1.4,0,3,.1,4.6h7.8c0-1.6.1-3.2.1-4.6V1.1a26.8,26.8,0,0,0-4-.2A26.1,26.1,0,0,0,91.9,1.1Z"/>
  </g>
  <g class="r" transform="matrix(1, 0, 0, 1, -56.081081, 1.351351)">
    <path class="s" d="M88.3,94.3c4.4-16.5,3.8-68.8,3.6-88.8V1.1a26.1,26.1,0,0,1,4-.2,26.8,26.8,0,0,1,4,.2V5.5c-.3,20-.9,72.3,3.5,88.8l-2.4-.2v-.2h0l-.5-1.2h0V92h-.1l-1.1-.3a3.7,3.7,0,0,1-2.2-3.7V85.1l-.2-.2h-.4c.1-.1.1-.1.1-.2h0v-.2a3.3,3.3,0,0,0,2.7-2.5l.2-.3h.2a.1.1,0,0,0,.1.1h.5c0,.1,0,.2.1.2h.3c.1,0,.1-.5.1-1s0-.9-.1-.9h-.3c-.1,0-.1,0-.1.1h-.5v.2h-.2c-.1-.2-.1-.4-.2-.6h-.1a3.4,3.4,0,0,0-2.7-2.3h-.1v-.6c0-.1,0-.2-.2-.6s-.1-.1-.1-.2a1.1,1.1,0,0,1,.1-.5v-.2h0a1.9,1.9,0,0,0,.8-.2h0a.8.8,0,0,1-.7.1h-.3c.1,0,.1-.1.1-.2s0-.2-.2-.2a.2.2,0,0,0-.2.2c0,.1.1.1.1.2h-.1l-.4.2-.3.5c-.1.2-.1.5,0,.5s.1,0,.1-.1v-.2c.1-.2.2-.4.3-.4h.1a1.3,1.3,0,0,1-.1.7h0v.6h0c-.2.1-.4.3-.4.4l-.3.3c-.1.1-.2.2-.1.2a4.1,4.1,0,0,0-2,2.1c0,.1,0,.1-.1.1s-.1.4-.1.6h-.2a.3.3,0,0,1-.1-.2h-.5c0-.1,0-.1-.1-.1h-.3c-.1,0-.2.4-.2.9s.1,1,.2,1h.3c.1,0,.1-.1.1-.2h.8l.2.3a3.2,3.2,0,0,0,2.7,2.5v.2h0c0,.1,0,.1.1.2h-.4l-.2.2v2.8a3.7,3.7,0,0,1-2.2,3.7l-1.1.3h-.1v.5h0l-.5,1.2h0v.2Zm7.6-17.7h-.1l-.3.3c-.1.2-.6.5-.7.6h.5l.4-.2h0a.2.2,0,0,1,.2-.2h0l.2.2h0a.1.1,0,0,0,.1.1v-.5C96.2,76.8,96,76.8,95.9,76.6Z"/>
  </g>
  <path class="t" d="M 62.119 96.652 L 53.419 96.652 C 49.157 82.377 47.034 67.549 47.119 52.652 C 47.119 35.152 49.819 18.852 54.619 5.052 L 54.719 5.052 C 56.667 6.028 58.51 7.2 60.219 8.552 C 55.019 20.552 52.119 34.952 52.119 50.352 C 52.119 67.652 55.819 83.652 62.219 96.552 L 62.119 96.652 Z"/>
  <path class="u" d="M 55.219 6.152 C 56.994 6.623 58.659 7.438 60.119 8.552 L 59.819 9.352 C 54.614 22.389 51.999 36.315 52.119 50.352 C 52.119 67.252 55.619 82.852 61.719 95.552 L 54.219 95.552 C 50.08 81.7 48.024 67.309 48.119 52.852 C 48.119 35.852 50.519 19.552 55.219 6.152 Z"/>
  <path class="v" d="M 53.419 96.552 L 54.219 95.552 C 54.019 94.652 53.719 93.752 53.519 92.852 C 53.319 91.952 53.019 90.952 52.719 90.052 L 51.519 84.552 L 51.219 83.152 L 50.919 81.752 C 50.719 80.852 50.619 79.952 50.419 78.952 C 50.219 77.952 49.819 75.252 49.619 73.352 C 49.119 69.652 48.719 65.852 48.519 62.052 C 48.319 58.252 48.219 54.552 48.319 50.752 C 48.302 49.817 48.336 48.883 48.419 47.952 L 48.419 45.052 C 48.422 43.181 48.522 41.312 48.719 39.452 C 48.819 37.552 49.019 35.652 49.219 33.752 L 49.619 30.952 L 49.919 28.152 L 50.419 25.352 L 50.919 22.552 L 51.419 19.852 L 52.019 17.052 L 52.719 14.252 C 52.919 13.352 53.219 12.452 53.419 11.552 C 53.619 10.652 53.919 9.752 54.219 8.852 L 55.119 6.152 L 54.519 4.952 L 55.119 6.152 L 54.119 8.752 C 53.919 9.652 53.619 10.552 53.319 11.552 C 53.019 12.552 52.819 13.352 52.519 14.252 C 52.219 15.152 52.019 16.052 51.819 16.952 L 51.219 19.752 L 50.619 22.552 L 50.119 25.352 L 49.619 28.152 L 49.219 30.952 L 48.819 33.752 C 48.619 35.652 48.419 37.552 48.319 39.452 C 48.219 41.352 48.019 43.152 47.919 45.052 L 47.919 50.752 C 47.819 54.552 47.919 58.352 48.119 62.152 C 48.319 65.952 48.719 69.652 49.319 73.452 C 49.519 75.252 49.819 77.152 50.119 79.052 L 50.719 81.852 L 51.019 83.252 L 51.319 84.552 L 51.919 87.352 C 52.119 88.252 52.419 89.152 52.619 90.152 C 52.819 91.152 53.119 91.952 53.419 92.852 C 53.719 93.752 53.919 94.652 54.219 95.552 L 53.419 96.552 Z"/>
  <path class="w" d="M 77.519 96.652 L 67.819 96.652 C 59.619 84.652 54.619 68.552 54.619 50.852 C 54.515 37.346 57.634 24.01 63.719 11.952 L 63.819 11.952 C 64.922 13.035 65.895 14.243 66.719 15.552 L 66.819 15.552 C 60.926 25.801 57.856 37.429 57.919 49.252 C 57.919 68.352 64.619 88.252 77.519 96.452 C 77.619 96.552 77.619 96.652 77.519 96.652 Z"/>
  <path class="x" d="M 64.119 13.352 C 65.104 13.973 66.011 14.712 66.819 15.552 L 66.419 16.052 C 60.772 26.201 57.844 37.638 57.919 49.252 C 57.919 67.652 64.119 86.752 76.219 95.552 L 68.319 95.552 C 60.519 83.952 55.619 68.452 55.619 51.352 C 55.619 37.352 58.619 23.952 64.119 13.352 Z"/>
  <path class="y" d="M 64.119 13.352 C 63.319 14.952 62.519 16.552 61.819 18.252 L 61.319 19.452 C 61.119 19.852 61.019 20.252 60.819 20.752 L 60.319 21.952 L 59.919 23.252 C 59.319 24.952 58.819 26.652 58.319 28.352 L 57.719 30.952 L 57.119 33.652 C 57 34.527 56.834 35.395 56.619 36.252 C 56.534 37.158 56.401 38.06 56.219 38.952 C 56.019 40.752 55.819 42.452 55.719 44.252 C 55.619 46.052 55.519 47.852 55.519 49.652 C 55.419 51.45 55.419 53.253 55.519 55.052 C 55.633 58.64 56 62.216 56.619 65.752 C 57.214 69.304 58.05 72.812 59.119 76.252 C 60.132 79.676 61.402 83.019 62.919 86.252 C 64.502 89.473 66.306 92.58 68.319 95.552 L 67.819 96.652 L 68.319 95.552 C 66.333 92.565 64.594 89.421 63.119 86.152 C 61.678 82.899 60.442 79.559 59.419 76.152 C 58.419 72.701 57.617 69.195 57.019 65.652 C 56.719 63.952 56.519 62.152 56.319 60.352 C 56.119 58.552 56.019 56.852 55.919 55.052 C 55.819 53.252 55.819 51.452 55.919 49.652 C 56.019 47.852 56.019 46.052 56.119 44.352 C 56.219 42.652 56.419 40.752 56.619 38.952 C 56.819 37.152 56.919 37.252 57.019 36.352 C 57.119 35.452 57.319 34.552 57.419 33.652 L 58.019 31.052 L 58.619 28.452 C 59.026 26.693 59.527 24.957 60.119 23.252 L 60.519 22.052 C 60.619 21.552 60.819 21.152 60.919 20.752 C 61.019 20.352 61.219 19.952 61.419 19.452 L 61.919 18.252 C 62.619 16.552 63.319 14.952 64.119 13.352 Z"/>
  <path class="z" d="M 39.319 86.052 L 39.219 86.052 L 39.219 85.852 C 38.895 85.845 38.582 85.74 38.319 85.552 L 37.519 85.052 L 36.919 84.252 C 36.819 84.152 36.819 83.952 36.719 83.852 C 36.619 83.752 36.619 83.552 36.519 83.452 L 36.519 83.152 L 35.019 83.152 C 34.937 82.928 34.903 82.69 34.919 82.452 L 34.919 81.752 C 35.019 81.752 35.019 81.652 35.019 81.552 L 36.319 81.552 C 36.304 81.347 36.338 81.141 36.419 80.952 L 36.519 80.952 C 36.839 80.022 37.525 79.263 38.419 78.852 C 37.494 79.25 36.772 80.009 36.419 80.952 L 36.319 80.952 C 36.238 81.105 36.203 81.279 36.219 81.452 L 34.919 81.452 C 34.819 81.552 34.819 81.552 34.819 81.652 L 34.819 83.352 L 36.119 83.352 L 36.119 83.552 C 36.119 83.752 36.219 83.852 36.219 84.052 L 36.519 84.452 C 36.628 84.776 36.838 85.056 37.119 85.252 L 37.919 85.852 L 38.819 86.152 L 38.819 86.352 L 38.319 86.352 L 38.319 86.552 L 38.319 88.652 C 38.335 89.22 38.302 89.789 38.219 90.352 C 38.113 90.902 37.872 91.417 37.519 91.852 C 37.2 92.312 36.745 92.661 36.219 92.852 L 35.519 93.152 L 34.919 93.152 L 34.919 93.552 C 34.861 93.603 34.825 93.675 34.819 93.752 L 34.619 94.152 L 34.619 94.752 C 34.619 94.852 34.519 94.852 34.519 94.952 L 34.519 95.652 L 34.019 95.652 L 33.719 96.052 L 34.019 95.652 L 34.319 95.452 L 34.519 95.452 L 34.519 94.752 C 34.519 94.652 34.519 94.652 34.619 94.552 L 34.619 94.352 L 34.819 93.952 L 35.019 93.652 L 35.019 92.952 L 35.519 92.952 L 36.319 92.652 C 36.845 92.412 37.321 92.072 37.719 91.652 C 38.012 91.147 38.247 90.61 38.419 90.052 C 38.502 89.489 38.535 88.92 38.519 88.352 L 38.519 86.552 L 39.119 86.552 L 39.319 86.052 Z"/>
  <path class="aa" d="M 45.419 96.252 L 44.919 96.252 L 44.919 94.452 L 44.719 94.052 L 44.719 93.452 L 43.919 93.452 L 43.119 93.152 L 42.419 92.752 L 41.819 92.152 C 41.534 91.69 41.331 91.183 41.219 90.652 C 41.136 90.089 41.102 89.52 41.119 88.952 L 41.119 86.252 L 41.619 86.052 L 42.419 85.452 C 42.673 85.23 42.877 84.958 43.019 84.652 L 43.219 84.252 C 43.319 84.052 43.419 83.952 43.419 83.752 L 43.419 83.552 L 43.819 83.552 C 43.819 83.607 43.864 83.652 43.919 83.652 L 44.719 83.652 C 44.719 83.552 44.719 83.452 44.819 83.452 L 44.819 81.652 C 44.719 81.552 44.719 81.552 44.719 81.452 L 44.019 81.452 C 43.919 81.452 43.919 81.452 43.919 81.552 L 43.419 81.552 L 43.419 81.052 L 43.319 81.052 C 43.206 80.775 43.072 80.508 42.919 80.252 L 42.219 79.552 C 41.728 79.147 41.143 78.872 40.519 78.752 L 40.419 78.752 L 40.419 78.852 L 40.519 78.852 C 41.143 78.972 41.728 79.247 42.219 79.652 L 42.819 80.352 C 42.991 80.597 43.126 80.867 43.219 81.152 L 43.319 81.152 C 43.369 81.349 43.403 81.549 43.419 81.752 L 44.719 81.752 L 44.719 81.952 C 44.801 82.176 44.835 82.414 44.819 82.652 C 44.819 82.952 44.719 83.152 44.719 83.352 L 44.719 83.552 L 43.319 83.552 L 43.119 83.852 C 43.095 84.02 43.062 84.187 43.019 84.352 C 42.915 84.463 42.846 84.602 42.819 84.752 L 42.219 85.552 L 41.419 86.052 C 41.156 86.24 40.842 86.345 40.519 86.352 L 40.419 86.352 L 40.419 86.552 L 40.919 86.552 L 40.919 88.752 C 40.902 89.32 40.936 89.889 41.019 90.452 C 41.148 91.025 41.385 91.568 41.719 92.052 L 42.319 92.652 L 43.119 93.052 L 43.919 93.352 L 44.319 93.352 L 44.319 93.552 C 44.319 93.652 44.319 93.752 44.419 93.752 L 44.419 94.052 L 44.619 94.352 C 44.646 94.501 44.715 94.64 44.819 94.752 L 44.819 94.952 C 44.877 95.003 44.912 95.075 44.919 95.152 L 44.919 95.852 L 45.119 95.852 L 45.419 96.052 L 45.719 96.452 L 45.419 96.252 Z"/>
</svg>